<?xml version="1.0" encoding="UTF-8" standalone="no"?>
<!DOCTYPE svg PUBLIC "-//W3C//DTD SVG 1.1//EN" "http://www.w3.org/Graphics/SVG/1.1/DTD/svg11.dtd">
<svg width="100%" height="100%" viewBox="0 0 760 160" version="1.1" xmlns="http://www.w3.org/2000/svg" xmlns:xlink="http://www.w3.org/1999/xlink" xml:space="preserve" xmlns:serif="http://www.serif.com/" style="fill-rule:evenodd;clip-rule:evenodd;stroke-linejoin:round;stroke-miterlimit:2;">
    <g transform="matrix(1,0,0,1,-23,0)">
        <g id="cloud-debt-light" serif:id="cloud debt light" transform="matrix(2.86086,0,0,2.862063,249.023213,116.998155)">
            <g transform="matrix(36.395661,0,0,36.395661,0,0)">
                <path d="M0.374,0.013C0.327,0.013 0.282,0.004 0.24,-0.015C0.199,-0.034 0.162,-0.06 0.131,-0.093C0.099,-0.127 0.075,-0.165 0.057,-0.209C0.039,-0.253 0.03,-0.3 0.03,-0.35C0.03,-0.4 0.039,-0.447 0.057,-0.491C0.075,-0.535 0.099,-0.574 0.131,-0.607C0.162,-0.64 0.199,-0.666 0.24,-0.685C0.282,-0.704 0.327,-0.713 0.374,-0.713C0.431,-0.713 0.483,-0.7 0.53,-0.674C0.578,-0.647 0.618,-0.612 0.649,-0.569L0.556,-0.519C0.535,-0.546 0.508,-0.568 0.476,-0.585C0.444,-0.601 0.41,-0.609 0.374,-0.609C0.341,-0.609 0.309,-0.602 0.28,-0.589C0.251,-0.575 0.226,-0.556 0.204,-0.533C0.182,-0.509 0.165,-0.481 0.152,-0.45C0.14,-0.419 0.134,-0.385 0.134,-0.35C0.134,-0.314 0.14,-0.281 0.153,-0.25C0.165,-0.218 0.182,-0.191 0.204,-0.167C0.226,-0.143 0.252,-0.125 0.281,-0.111C0.31,-0.098 0.341,-0.091 0.374,-0.091C0.411,-0.091 0.445,-0.099 0.477,-0.116C0.509,-0.132 0.535,-0.154 0.556,-0.181L0.649,-0.131C0.618,-0.087 0.578,-0.053 0.53,-0.026C0.483,-0 0.431,0.013 0.374,0.013Z" style="fill-rule:nonzero;"/>
            </g>
            <g transform="matrix(36.395661,0,0,36.395661,25.440567,0)">
                <rect x="0.066" y="-0.75" width="0.104" height="0.75"/>
            </g>
            <g transform="matrix(36.395661,0,0,36.395661,34.011746,0)">
                <path d="M0.28,0.013C0.234,0.013 0.192,0.001 0.154,-0.022C0.116,-0.046 0.086,-0.078 0.064,-0.118C0.041,-0.158 0.03,-0.202 0.03,-0.25C0.03,-0.287 0.036,-0.321 0.05,-0.353C0.062,-0.385 0.08,-0.413 0.103,-0.437C0.126,-0.461 0.153,-0.48 0.183,-0.493C0.213,-0.507 0.246,-0.514 0.28,-0.514C0.326,-0.514 0.368,-0.502 0.406,-0.479C0.444,-0.455 0.474,-0.423 0.496,-0.383C0.519,-0.343 0.53,-0.299 0.53,-0.25C0.53,-0.214 0.523,-0.18 0.511,-0.148C0.498,-0.116 0.48,-0.088 0.457,-0.064C0.434,-0.04 0.407,-0.021 0.377,-0.007C0.347,0.006 0.315,0.013 0.28,0.013ZM0.28,-0.091C0.308,-0.091 0.332,-0.098 0.355,-0.113C0.377,-0.128 0.394,-0.147 0.407,-0.171C0.42,-0.195 0.426,-0.222 0.426,-0.25C0.426,-0.279 0.419,-0.306 0.406,-0.33C0.393,-0.354 0.376,-0.374 0.354,-0.388C0.332,-0.403 0.307,-0.41 0.28,-0.41C0.253,-0.41 0.228,-0.403 0.206,-0.388C0.184,-0.373 0.166,-0.354 0.153,-0.33C0.14,-0.305 0.134,-0.279 0.134,-0.25C0.134,-0.22 0.141,-0.193 0.154,-0.169C0.167,-0.145 0.185,-0.126 0.207,-0.112C0.229,-0.098 0.254,-0.091 0.28,-0.091Z" style="fill-rule:nonzero;"/>
            </g>
            <g transform="matrix(36.395661,0,0,36.395661,53.719996,0)">
                <path d="M0.06,-0.239L0.06,-0.5L0.164,-0.5L0.164,-0.241C0.164,-0.213 0.17,-0.187 0.182,-0.164C0.193,-0.14 0.21,-0.122 0.23,-0.108C0.251,-0.094 0.274,-0.087 0.3,-0.087C0.326,-0.087 0.349,-0.094 0.368,-0.108C0.388,-0.122 0.403,-0.14 0.414,-0.164C0.424,-0.187 0.43,-0.213 0.43,-0.241L0.43,-0.5L0.534,-0.5L0.534,-0L0.43,-0L0.43,-0.068C0.413,-0.043 0.392,-0.023 0.367,-0.008C0.342,0.006 0.314,0.014 0.284,0.014C0.239,0.014 0.2,0.002 0.166,-0.021C0.133,-0.044 0.107,-0.074 0.088,-0.113C0.07,-0.151 0.061,-0.193 0.06,-0.239Z" style="fill-rule:nonzero;"/>
            </g>
            <g transform="matrix(36.395661,0,0,36.395661,75.102447,0)">
                <path d="M0.45,-0.75L0.554,-0.75L0.554,-0L0.45,-0L0.45,-0.073C0.433,-0.048 0.412,-0.027 0.385,-0.011C0.359,0.005 0.328,0.013 0.293,0.013C0.257,0.013 0.223,0.006 0.191,-0.007C0.159,-0.021 0.131,-0.04 0.107,-0.064C0.083,-0.088 0.064,-0.116 0.051,-0.148C0.037,-0.18 0.03,-0.214 0.03,-0.25C0.03,-0.286 0.037,-0.32 0.051,-0.352C0.064,-0.384 0.083,-0.412 0.107,-0.436C0.131,-0.46 0.159,-0.479 0.191,-0.493C0.223,-0.506 0.257,-0.513 0.293,-0.513C0.328,-0.513 0.359,-0.505 0.385,-0.49C0.412,-0.474 0.433,-0.453 0.45,-0.427L0.45,-0.75ZM0.294,-0.087C0.323,-0.087 0.349,-0.095 0.371,-0.109C0.393,-0.124 0.41,-0.143 0.422,-0.168C0.435,-0.193 0.441,-0.22 0.441,-0.25C0.441,-0.28 0.434,-0.308 0.422,-0.333C0.41,-0.357 0.393,-0.377 0.371,-0.391C0.349,-0.406 0.323,-0.413 0.294,-0.413C0.265,-0.413 0.239,-0.406 0.215,-0.391C0.191,-0.377 0.172,-0.357 0.158,-0.332C0.144,-0.307 0.137,-0.28 0.137,-0.25C0.137,-0.22 0.144,-0.192 0.158,-0.168C0.173,-0.143 0.192,-0.124 0.216,-0.109C0.24,-0.095 0.266,-0.087 0.294,-0.087Z" style="fill-rule:nonzero;"/>
            </g>
            <g transform="matrix(36.395661,0,0,36.395661,106.147946,0)">
                <path d="M0.06,-0L0.06,-0.7L0.292,-0.7C0.34,-0.7 0.385,-0.691 0.428,-0.673C0.47,-0.655 0.507,-0.629 0.539,-0.597C0.571,-0.565 0.596,-0.528 0.614,-0.486C0.633,-0.444 0.642,-0.398 0.642,-0.35C0.642,-0.302 0.633,-0.256 0.614,-0.214C0.596,-0.172 0.571,-0.135 0.539,-0.103C0.507,-0.071 0.47,-0.045 0.428,-0.027C0.385,-0.009 0.34,-0 0.292,-0L0.06,-0ZM0.164,-0.104L0.292,-0.104C0.325,-0.104 0.357,-0.11 0.387,-0.123C0.416,-0.136 0.443,-0.153 0.465,-0.176C0.488,-0.199 0.506,-0.225 0.519,-0.254C0.531,-0.284 0.538,-0.316 0.538,-0.35C0.538,-0.384 0.531,-0.416 0.519,-0.445C0.506,-0.475 0.488,-0.501 0.465,-0.524C0.443,-0.547 0.416,-0.564 0.387,-0.577C0.357,-0.59 0.326,-0.596 0.292,-0.596L0.164,-0.596L0.164,-0.104Z" style="fill-rule:nonzero;"/>
            </g>
            <g transform="matrix(36.395661,0,0,36.395661,130.150885,0)">
                <path d="M0.28,0.013C0.234,0.013 0.192,0.001 0.154,-0.022C0.116,-0.046 0.086,-0.078 0.064,-0.118C0.041,-0.158 0.03,-0.202 0.03,-0.25C0.03,-0.287 0.036,-0.321 0.05,-0.353C0.062,-0.385 0.08,-0.413 0.103,-0.437C0.126,-0.461 0.153,-0.48 0.183,-0.493C0.213,-0.507 0.246,-0.514 0.28,-0.514C0.318,-0.514 0.353,-0.506 0.385,-0.49C0.417,-0.474 0.445,-0.452 0.467,-0.425C0.49,-0.397 0.507,-0.365 0.517,-0.329C0.528,-0.292 0.531,-0.254 0.527,-0.214L0.141,-0.214C0.146,-0.191 0.154,-0.17 0.167,-0.151C0.179,-0.133 0.195,-0.118 0.215,-0.108C0.234,-0.097 0.256,-0.091 0.28,-0.091C0.305,-0.091 0.328,-0.097 0.349,-0.11C0.37,-0.123 0.387,-0.14 0.4,-0.163L0.506,-0.138C0.486,-0.094 0.456,-0.057 0.416,-0.029C0.375,-0.001 0.33,0.013 0.28,0.013ZM0.138,-0.293L0.422,-0.293C0.419,-0.317 0.41,-0.339 0.397,-0.358C0.383,-0.378 0.367,-0.393 0.346,-0.405C0.326,-0.416 0.304,-0.422 0.28,-0.422C0.256,-0.422 0.234,-0.417 0.214,-0.405C0.194,-0.394 0.177,-0.378 0.164,-0.359C0.151,-0.339 0.142,-0.317 0.138,-0.293Z" style="fill-rule:nonzero;"/>
            </g>
            <g transform="matrix(36.395661,0,0,36.395661,150.07751,0)">
                <path d="M0.32,-0.514C0.369,-0.514 0.413,-0.502 0.453,-0.479C0.493,-0.455 0.524,-0.423 0.548,-0.383C0.572,-0.343 0.584,-0.299 0.584,-0.251C0.584,-0.214 0.577,-0.18 0.563,-0.148C0.549,-0.116 0.531,-0.088 0.506,-0.064C0.482,-0.04 0.454,-0.021 0.422,-0.007C0.391,0.006 0.356,0.013 0.32,0.013C0.285,0.013 0.254,0.005 0.228,-0.011C0.202,-0.027 0.181,-0.048 0.164,-0.074L0.164,-0L0.06,-0L0.06,-0.75L0.164,-0.75L0.164,-0.427C0.181,-0.453 0.202,-0.474 0.228,-0.49C0.254,-0.506 0.285,-0.514 0.32,-0.514ZM0.319,-0.088C0.348,-0.088 0.375,-0.095 0.399,-0.11C0.422,-0.124 0.442,-0.144 0.456,-0.169C0.47,-0.194 0.477,-0.221 0.477,-0.251C0.477,-0.281 0.47,-0.308 0.455,-0.333C0.441,-0.358 0.422,-0.377 0.398,-0.392C0.374,-0.406 0.347,-0.414 0.319,-0.414C0.29,-0.414 0.264,-0.406 0.242,-0.392C0.22,-0.377 0.203,-0.357 0.191,-0.332C0.179,-0.308 0.173,-0.28 0.173,-0.251C0.173,-0.22 0.179,-0.193 0.191,-0.168C0.203,-0.144 0.221,-0.124 0.243,-0.11C0.265,-0.095 0.29,-0.088 0.319,-0.088Z" style="fill-rule:nonzero;"/>
            </g>
            <g transform="matrix(36.395661,0,0,36.395661,172.060489,0)">
                <path d="M0.324,-0.396L0.219,-0.396L0.219,-0L0.115,-0L0.115,-0.396L0.035,-0.396L0.035,-0.5L0.115,-0.5L0.115,-0.657L0.219,-0.657L0.219,-0.5L0.324,-0.5L0.324,-0.396Z" style="fill-rule:nonzero;"/>
            </g>
        </g>
    </g>
    <g id="Squares-light" serif:id="Squares light" transform="matrix(0.506168,0,0,0.506168,-46.044411,-45.541944)">
        <g id="Rectangle-2-copy-2" serif:id="Rectangle 2 copy 2">
            <path d="M399,121.816L399,229.184C399,240.673 389.673,250 378.184,250L270.816,250C259.327,250 250,240.673 250,229.184L250,121.816C250,110.327 259.327,101 270.816,101L378.184,101C389.673,101 399,110.327 399,121.816Z" style="fill:rgb(55,164,183);"/>
            <path d="M399,121.816L399,229.184C399,240.673 389.673,250 378.184,250L270.816,250C259.327,250 250,240.673 250,229.184L250,121.816C250,110.327 259.327,101 270.816,101L378.184,101C389.673,101 399,110.327 399,121.816ZM395.049,121.816C395.049,112.508 387.492,104.951 378.184,104.951L270.816,104.951C261.508,104.951 253.951,112.508 253.951,121.816L253.951,229.184C253.951,238.492 261.508,246.049 270.816,246.049L378.184,246.049C387.492,246.049 395.049,238.492 395.049,229.184L395.049,121.816Z" style="fill-opacity:0.09;"/>
        </g>
        <g id="Rectangle-2-copy" serif:id="Rectangle 2 copy">
            <path d="M324,195.816L324,303.184C324,314.673 314.673,324 303.184,324L195.816,324C184.327,324 175,314.673 175,303.184L175,195.816C175,184.327 184.327,175 195.816,175L303.184,175C314.673,175 324,184.327 324,195.816Z" style="fill:rgb(35,107,119);"/>
            <path d="M324,195.816L324,303.184C324,314.673 314.673,324 303.184,324L195.816,324C184.327,324 175,314.673 175,303.184L175,195.816C175,184.327 184.327,175 195.816,175L303.184,175C314.673,175 324,184.327 324,195.816ZM320.049,195.816C320.049,186.508 312.492,178.951 303.184,178.951L195.816,178.951C186.508,178.951 178.951,186.508 178.951,195.816L178.951,303.184C178.951,312.492 186.508,320.049 195.816,320.049L303.184,320.049C312.492,320.049 320.049,312.492 320.049,303.184L320.049,195.816Z" style="fill-opacity:0.04;"/>
        </g>
        <path d="M250,270.816L250,378.184C250,389.673 240.673,399 229.184,399L121.816,399C110.327,399 101,389.673 101,378.184L101,270.816C101,259.327 110.327,250 121.816,250L229.184,250C240.673,250 250,259.327 250,270.816Z" style="fill:rgb(0,61,71);"/>
        <path d="M250,270.816L250,378.184C250,389.673 240.673,399 229.184,399L121.816,399C110.327,399 101,389.673 101,378.184L101,270.816C101,259.327 110.327,250 121.816,250L229.184,250C240.673,250 250,259.327 250,270.816ZM246.049,270.816C246.049,261.508 238.492,253.951 229.184,253.951L121.816,253.951C112.508,253.951 104.951,261.508 104.951,270.816L104.951,378.184C104.951,387.492 112.508,395.049 121.816,395.049L229.184,395.049C238.492,395.049 246.049,387.492 246.049,378.184L246.049,270.816Z" style="fill-opacity:0.09;"/>
    </g>
</svg>
